<?xml version="1.0" standalone="no"?>
<!DOCTYPE svg PUBLIC "-//W3C//DTD SVG 20010904//EN"
 "http://www.w3.org/TR/2001/REC-SVG-20010904/DTD/svg10.dtd">
<svg version="1.0" xmlns="http://www.w3.org/2000/svg"
 width="522.000000pt" height="522.000000pt" viewBox="0 0 522.000000 522.000000"
 preserveAspectRatio="xMidYMid meet">
<metadata>
Created by potrace 1.14, written by Peter Selinger 2001-2017
</metadata>
<g transform="translate(0.000000,522.000000) scale(0.100000,-0.100000)"
fill="#000000" stroke="none">
<path d="M3830 3088 c38 -36 48 -48 24 -30 -22 17 -47 38 -54 47 -16 19 -40
20 -40 1 0 -8 -6 -16 -12 -19 -10 -3 -8 -10 5 -25 18 -20 18 -20 -4 -15 -18 5
-21 3 -16 -11 4 -11 3 -15 -4 -11 -12 8 -40 -25 -32 -38 2 -4 -7 -5 -21 -1
-21 5 -26 3 -26 -13 0 -11 6 -28 14 -38 14 -20 10 -55 -6 -55 -6 0 -8 -6 -5
-14 3 -8 1 -17 -6 -20 -9 -3 -8 -8 3 -15 13 -9 12 -11 -4 -11 -11 0 -16 -5
-13 -14 3 -7 1 -18 -5 -24 -8 -8 -5 -14 13 -21 23 -9 23 -10 2 -10 -17 -1 -21
-6 -20 -28 2 -17 9 -27 21 -29 33 -5 30 -14 -4 -14 -32 0 -33 -1 -17 -17 16
-16 15 -18 -13 -29 -33 -14 -41 -44 -11 -44 23 0 28 -13 25 -72 -1 -44 0 -47
25 -51 l26 -4 -27 -2 c-31 -1 -35 -16 -14 -46 7 -11 12 -32 10 -47 -2 -20 2
-28 12 -28 8 0 12 -4 9 -10 -3 -5 -1 -19 5 -30 9 -16 8 -22 -5 -26 -24 -10
-18 -34 9 -34 17 0 26 -7 30 -25 4 -14 11 -25 16 -25 6 0 10 -7 10 -15 0 -8 7
-15 15 -15 8 0 15 -5 15 -11 0 -6 7 -8 16 -5 15 6 15 4 3 -10 -10 -12 -11 -18
-3 -21 7 -2 10 -13 7 -23 -6 -23 0 -25 29 -9 15 8 19 8 14 0 -5 -8 27 -11 110
-11 97 0 121 3 138 18 20 16 20 16 7 0 -12 -17 -9 -18 41 -18 54 0 55 0 76 44
12 24 22 53 22 65 0 18 3 20 19 11 16 -8 18 -15 11 -41 -5 -18 -16 -39 -25
-49 -8 -9 -15 -20 -15 -23 0 -4 43 -7 96 -7 l97 0 -6 30 c-6 27 -4 30 18 30
21 0 25 -5 25 -30 l0 -30 95 0 c92 0 95 1 85 19 -5 11 -15 23 -20 26 -17 11
-11 32 10 38 26 7 60 -28 60 -60 0 -23 0 -23 140 -23 77 0 140 2 140 4 0 3
-45 35 -100 72 -96 65 -99 68 -83 86 9 10 22 17 28 16 6 -2 46 -42 88 -89 l77
-87 37 9 c21 4 39 13 41 18 2 6 10 11 18 11 8 0 20 5 27 10 7 6 21 17 32 24
17 12 18 16 5 32 -12 16 -12 17 0 7 21 -19 33 -16 27 6 -3 15 -1 18 11 14 11
-5 14 -2 9 11 -4 10 -3 15 3 11 15 -10 39 55 46 125 4 47 3 65 -8 71 -9 6 -10
9 0 9 9 0 12 24 12 85 l0 85 -112 2 c-62 1 -123 2 -135 2 -18 0 -23 6 -23 28
0 15 1 28 3 28 1 0 56 -11 122 -25 66 -14 126 -25 133 -25 20 0 15 68 -5 73
-17 4 -17 5 0 6 11 1 17 9 17 26 0 20 -5 25 -26 25 -14 0 -32 7 -40 15 -14 13
-14 15 0 15 9 0 16 -4 16 -10 0 -5 12 -10 26 -10 l26 0 -5 90 c-2 51 -9 96
-17 105 -7 8 -9 15 -4 15 4 0 3 5 -3 11 -8 8 -19 6 -39 -6 l-29 -17 28 22 c51
41 26 57 -27 17 -33 -26 -76 -50 -76 -44 0 2 25 21 55 42 52 36 68 55 44 55
-6 0 -25 -9 -42 -21 -32 -21 -32 -21 2 9 23 20 30 31 22 36 -6 4 -20 2 -29 -5
-14 -11 -15 -11 -4 1 28 32 2 42 -32 13 -21 -18 -21 -18 -3 3 33 40 10 48 -32
12 l-26 -23 23 26 c25 29 14 51 -14 28 -12 -10 -13 -9 -9 3 4 11 -2 18 -22 23
-30 7 -30 7 -135 -115 l-46 -55 -22 21 -21 21 88 64 88 64 -134 3 c-134 3
-161 -3 -161 -34 0 -18 -17 -26 -40 -19 -18 6 -19 8 -4 31 l16 24 -85 0 c-76
0 -85 -2 -90 -20 -3 -12 -14 -20 -27 -20 -17 0 -21 4 -17 20 5 19 0 20 -75 20
l-80 0 5 -28 c3 -16 7 -35 9 -42 2 -8 -6 -16 -18 -18 -22 -3 -34 19 -34 66 0
21 -3 22 -105 22 -58 0 -105 -2 -105 -4 0 -2 41 -29 90 -61 91 -58 102 -71 75
-81 -10 -4 -44 21 -96 70 l-81 76 -59 0 c-45 0 -58 -3 -53 -12 6 -10 4 -10 -7
0 -7 6 -31 12 -53 12 l-41 -1 65 -61z m-35 -18 c10 -11 16 -20 13 -20 -3 0
-13 9 -23 20 -10 11 -16 20 -13 20 3 0 13 -9 23 -20z m90 10 c3 -6 -1 -7 -9
-4 -18 7 -21 14 -7 14 6 0 13 -4 16 -10z m29 -13 c-2 -7 4 -21 15 -31 24 -22
18 -40 -9 -26 -16 8 -22 45 -11 68 4 9 9 -1 5 -11z m726 -33 c113 -54 218
-167 225 -243 6 -68 17 -110 31 -122 16 -13 19 -69 4 -69 -6 0 -13 7 -16 15
-4 8 -10 12 -15 9 -5 -3 -9 4 -9 15 0 12 -4 21 -10 21 -10 0 -15 -57 -11 -113
2 -22 -1 -28 -15 -25 -13 2 -21 -7 -28 -30 -6 -21 -6 -36 0 -40 25 -19 -5 -88
-34 -77 -19 7 -52 -22 -46 -40 3 -8 -4 -16 -16 -20 -15 -5 -20 -13 -17 -26 5
-18 -2 -23 -33 -20 -22 1 -36 -11 -44 -36 -6 -18 -3 -23 11 -24 49 -3 -81 -30
-144 -30 -131 0 -239 47 -327 142 -97 105 -133 215 -116 357 22 194 152 339
345 386 11 3 61 4 110 3 77 -2 99 -7 155 -33z m-799 -1 c13 -16 12 -17 -3 -4
-17 13 -22 21 -14 21 2 0 10 -8 17 -17z m69 -103 c28 -11 68 -20 88 -20 46 0
65 -15 50 -40 -14 -21 -72 -13 -114 17 -39 27 -88 43 -138 44 l-41 2 35 7 c56
12 67 11 120 -10z m1220 -50 c-21 -11 -56 -19 -85 -20 -27 0 -69 -9 -92 -20
-42 -19 -43 -19 -53 0 -8 16 -6 22 15 36 21 14 42 16 108 12 45 -3 91 -2 102
2 37 16 40 9 5 -10z m-97 -57 c-7 -2 -21 -2 -30 0 -10 3 -4 5 12 5 17 0 24 -2
18 -5z m-73 -13 c-8 -5 -19 -10 -25 -10 -5 0 -3 5 5 10 8 5 20 10 25 10 6 0 3
-5 -5 -10z m77 -36 c-3 -3 -12 -4 -19 -1 -8 3 -5 6 6 6 11 1 17 -2 13 -5z m60
-50 c-3 -3 -12 -4 -19 -1 -8 3 -5 6 6 6 11 1 17 -2 13 -5z m-1420 -10 c-3 -3
-12 -4 -19 -1 -8 3 -5 6 6 6 11 1 17 -2 13 -5z m301 -59 c-2 -2 -52 -6 -113
-9 l-110 -6 75 23 c149 47 145 46 148 19 2 -13 2 -25 0 -27z m-231 19 c-3 -3
-12 -4 -19 -1 -8 3 -5 6 6 6 11 1 17 -2 13 -5z m259 -199 c13 -41 3 -55 -38
-55 -44 0 -121 -30 -151 -58 -16 -16 -26 -20 -22 -11 8 22 50 51 108 77 29 13
54 33 65 51 9 17 19 31 22 31 3 0 10 -16 16 -35z m1171 19 c-3 -3 -12 -4 -19
-1 -8 3 -5 6 6 6 11 1 17 -2 13 -5z m-337 -109 c-21 -26 -31 -16 -13 11 9 15
19 21 21 15 2 -6 -2 -18 -8 -26z m172 -42 c36 -34 64 -63 61 -63 -10 0 -49 24
-76 46 -15 13 -46 29 -67 35 -44 14 -44 13 -30 39 15 27 34 17 112 -57z m-962
-105 c-74 -87 -76 -89 -46 -38 15 25 36 64 48 88 19 39 22 42 36 28 14 -14 10
-22 -38 -78z m-285 -38 c-3 -5 -12 -10 -18 -10 -7 0 -6 4 3 10 19 12 23 12 15
0z m365 -54 c0 -2 -8 -10 -17 -17 -16 -13 -17 -12 -4 4 13 16 21 21 21 13z"/>
<path d="M4209 2881 c-57 -18 -113 -57 -103 -72 2 -4 24 0 47 10 41 18 102 18
113 0 2 -5 -7 -11 -21 -14 -14 -3 -36 -7 -49 -10 -37 -7 -68 -37 -61 -58 9
-22 31 -22 40 1 6 15 8 14 16 -6 16 -42 110 -67 167 -43 31 13 41 36 25 57 -5
5 1 -1 12 -13 28 -31 35 -29 35 11 0 88 -127 167 -221 137z m123 -153 c-7 -7
-12 -8 -12 -2 0 6 3 14 7 17 3 4 9 5 12 2 2 -3 -1 -11 -7 -17z"/>
<path d="M4600 2868 c-25 -13 -55 -38 -67 -56 -39 -59 -45 -229 -9 -255 16
-11 14 -14 -17 -29 -32 -15 -36 -15 -66 3 -18 11 -31 27 -31 39 0 28 -18 25
-32 -6 -11 -24 -9 -29 23 -59 20 -18 39 -40 42 -49 7 -18 27 -22 27 -5 0 8 5
7 16 -2 14 -11 18 -11 28 2 6 8 28 28 49 43 42 32 46 56 17 93 -16 20 -19 34
-14 67 4 22 11 49 16 59 9 18 10 18 31 -1 12 -10 30 -22 40 -25 22 -8 72 16
81 38 3 9 10 14 15 10 6 -3 8 -12 4 -20 -5 -16 13 -20 41 -9 28 11 18 43 -23
69 -29 20 -52 26 -91 27 -29 0 -48 4 -44 8 13 12 57 16 72 7 6 -5 12 -6 12 -4
0 3 16 1 35 -3 65 -15 54 25 -16 61 -50 25 -85 24 -139 -3z m70 -118 c0 -5 -4
-10 -10 -10 -5 0 -10 5 -10 10 0 6 5 10 10 10 6 0 10 -4 10 -10z"/>
<path d="M4397 2412 c-32 -12 -40 -13 -47 -2 -11 18 -40 5 -40 -19 0 -20 44
-51 73 -51 8 0 34 -9 57 -19 l42 -19 -31 -7 c-47 -10 -41 -37 7 -29 28 4 41 2
51 -10 20 -24 43 -20 39 6 -2 14 -13 25 -28 29 -24 7 -24 7 -2 8 12 1 22 7 22
16 0 9 23 26 55 40 57 25 65 35 41 54 -11 9 -19 9 -34 0 -17 -10 -25 -10 -46
4 -32 21 -107 21 -159 -1z m106 -59 c-7 -2 -21 -2 -30 0 -10 3 -4 5 12 5 17 0
24 -2 18 -5z"/>
</g>
</svg>
